

<svg width="460" 
     height="400"
     xmlns="http://www.w3.org/2000/svg">
  
  <style>
    .tick-label { font-family: sans-serif; fill: #333; }
    .axis-line, .tick-line { stroke: #666; }
  </style>
  
  <g transform="translate(60,30)">

    
    <g transform="translate(0,300)">
      <!-- axis orientation=bottom range=[0,370] ticks=10 -->
  <g class="axis axis-bottom" transform="translate(0, 0)">
    <line class="axis-line" x1="0" y1="0" x2="370" y2="0" stroke="currentColor" stroke-width="1"/>
    <g class="tick" transform="translate(3.70, 0)">
      <line class="tick-line" x1="0" y1="0" x2="0" y2="6" stroke="currentColor" stroke-width="1"/>
      <text class="tick-label" x="0" y="9" text-anchor="start" dominant-baseline="central" transform="rotate(45, 0, 9)" >United States</text>
    </g>
    <g class="tick" transform="translate(40.70, 0)">
      <line class="tick-line" x1="0" y1="0" x2="0" y2="6" stroke="currentColor" stroke-width="1"/>
      <text class="tick-label" x="0" y="9" text-anchor="start" dominant-baseline="central" transform="rotate(45, 0, 9)" >Russia</text>
    </g>
    <g class="tick" transform="translate(77.70, 0)">
      <line class="tick-line" x1="0" y1="0" x2="0" y2="6" stroke="currentColor" stroke-width="1"/>
      <text class="tick-label" x="0" y="9" text-anchor="start" dominant-baseline="central" transform="rotate(45, 0, 9)" >Germany (FRG)</text>
    </g>
    <g class="tick" transform="translate(114.70, 0)">
      <line class="tick-line" x1="0" y1="0" x2="0" y2="6" stroke="currentColor" stroke-width="1"/>
      <text class="tick-label" x="0" y="9" text-anchor="start" dominant-baseline="central" transform="rotate(45, 0, 9)" >France</text>
    </g>
    <g class="tick" transform="translate(151.70, 0)">
      <line class="tick-line" x1="0" y1="0" x2="0" y2="6" stroke="currentColor" stroke-width="1"/>
      <text class="tick-label" x="0" y="9" text-anchor="start" dominant-baseline="central" transform="rotate(45, 0, 9)" >United Kingdom</text>
    </g>
    <g class="tick" transform="translate(188.70, 0)">
      <line class="tick-line" x1="0" y1="0" x2="0" y2="6" stroke="currentColor" stroke-width="1"/>
      <text class="tick-label" x="0" y="9" text-anchor="start" dominant-baseline="central" transform="rotate(45, 0, 9)" >China</text>
    </g>
    <g class="tick" transform="translate(225.70, 0)">
      <line class="tick-line" x1="0" y1="0" x2="0" y2="6" stroke="currentColor" stroke-width="1"/>
      <text class="tick-label" x="0" y="9" text-anchor="start" dominant-baseline="central" transform="rotate(45, 0, 9)" >Spain</text>
    </g>
    <g class="tick" transform="translate(262.70, 0)">
      <line class="tick-line" x1="0" y1="0" x2="0" y2="6" stroke="currentColor" stroke-width="1"/>
      <text class="tick-label" x="0" y="9" text-anchor="start" dominant-baseline="central" transform="rotate(45, 0, 9)" >Netherlands</text>
    </g>
    <g class="tick" transform="translate(299.70, 0)">
      <line class="tick-line" x1="0" y1="0" x2="0" y2="6" stroke="currentColor" stroke-width="1"/>
      <text class="tick-label" x="0" y="9" text-anchor="start" dominant-baseline="central" transform="rotate(45, 0, 9)" >Italy</text>
    </g>
    <g class="tick" transform="translate(336.70, 0)">
      <line class="tick-line" x1="0" y1="0" x2="0" y2="6" stroke="currentColor" stroke-width="1"/>
      <text class="tick-label" x="0" y="9" text-anchor="start" dominant-baseline="central" transform="rotate(45, 0, 9)" >Israel</text>
    </g>
  </g>

    </g>

    <g> <!-- axis orientation=left range=[300,0] ticks=7 -->
  <g class="axis axis-left" transform="translate(0, 0)">
    <line class="axis-line" x1="0" y1="300" x2="0" y2="0" stroke="currentColor" stroke-width="1"/>
    <g class="tick" transform="translate(0, 300)">
      <line class="tick-line" x1="-6" y1="0" x2="0" y2="0" stroke="currentColor" stroke-width="1"/>
      <text class="tick-label" x="-9" y="0" text-anchor="end" dominant-baseline="central" >0</text>
    </g>
    <g class="tick" transform="translate(0, 253.85)">
      <line class="tick-line" x1="-6" y1="0" x2="0" y2="0" stroke="currentColor" stroke-width="1"/>
      <text class="tick-label" x="-9" y="0" text-anchor="end" dominant-baseline="central" >2000</text>
    </g>
    <g class="tick" transform="translate(0, 207.69)">
      <line class="tick-line" x1="-6" y1="0" x2="0" y2="0" stroke="currentColor" stroke-width="1"/>
      <text class="tick-label" x="-9" y="0" text-anchor="end" dominant-baseline="central" >4000</text>
    </g>
    <g class="tick" transform="translate(0, 161.54)">
      <line class="tick-line" x1="-6" y1="0" x2="0" y2="0" stroke="currentColor" stroke-width="1"/>
      <text class="tick-label" x="-9" y="0" text-anchor="end" dominant-baseline="central" >6000</text>
    </g>
    <g class="tick" transform="translate(0, 115.38)">
      <line class="tick-line" x1="-6" y1="0" x2="0" y2="0" stroke="currentColor" stroke-width="1"/>
      <text class="tick-label" x="-9" y="0" text-anchor="end" dominant-baseline="central" >8000</text>
    </g>
    <g class="tick" transform="translate(0, 69.23)">
      <line class="tick-line" x1="-6" y1="0" x2="0" y2="0" stroke="currentColor" stroke-width="1"/>
      <text class="tick-label" x="-9" y="0" text-anchor="end" dominant-baseline="central" >10000</text>
    </g>
    <g class="tick" transform="translate(0, 23.08)">
      <line class="tick-line" x1="-6" y1="0" x2="0" y2="0" stroke="currentColor" stroke-width="1"/>
      <text class="tick-label" x="-9" y="0" text-anchor="end" dominant-baseline="central" >12000</text>
    </g>
  </g>
</g>

      <rect x="3.6999999999999993"
            y="13.984615384615385"
            width="29.6"
            height="286.0153846153846"
            fill="#69b3a2"/>
      <rect x="40.7"
            y="158.12307692307692"
            width="29.6"
            height="141.87692307692308"
            fill="#69b3a2"/>
      <rect x="77.7"
            y="261.8538461538462"
            width="29.6"
            height="38.14615384615382"
            fill="#69b3a2"/>
      <rect x="114.7"
            y="250.1076923076923"
            width="29.6"
            height="49.892307692307696"
            fill="#69b3a2"/>
      <rect x="151.7"
            y="271.9846153846154"
            width="29.6"
            height="28.01538461538462"
            fill="#69b3a2"/>
      <rect x="188.7"
            y="273.9"
            width="29.6"
            height="26.100000000000023"
            fill="#69b3a2"/>
      <rect x="225.7"
            y="281.2153846153846"
            width="29.6"
            height="18.784615384615392"
            fill="#69b3a2"/>
      <rect x="262.7"
            y="273.0692307692308"
            width="29.6"
            height="26.930769230769215"
            fill="#69b3a2"/>
      <rect x="299.7"
            y="284.7692307692308"
            width="29.6"
            height="15.230769230769226"
            fill="#69b3a2"/>
      <rect x="336.7"
            y="270.8538461538462"
            width="29.6"
            height="29.146153846153823"
            fill="#69b3a2"/>
  </g>
</svg>