

<svg width="460" 
     height="400"
     xmlns="http://www.w3.org/2000/svg">
  
  <style>
    .tick-label { font-family: sans-serif; fill: #333; }
    .axis-line, .tick-line { stroke: #666; }
  </style>
  
  <g transform="translate(90,20)">
    


    <g transform="translate(0,340)"> 
      <!-- axis orientation=bottom range=[0,340] ticks=14 -->
  <g class="axis axis-bottom" transform="translate(0, 0)">
    <line class="axis-line" x1="0" y1="0" x2="340" y2="0" stroke="currentColor" stroke-width="1"/>
    <g class="tick" transform="translate(0, 0)">
      <line class="tick-line" x1="0" y1="0" x2="0" y2="6" stroke="currentColor" stroke-width="1"/>
      <text class="tick-label" x="0" y="9" text-anchor="end" dominant-baseline="central" transform="rotate(-45, 0, 9)" >0</text>
    </g>
    <g class="tick" transform="translate(24.94, 0)">
      <line class="tick-line" x1="0" y1="0" x2="0" y2="6" stroke="currentColor" stroke-width="1"/>
      <text class="tick-label" x="0" y="9" text-anchor="end" dominant-baseline="central" transform="rotate(-45, 0, 9)" >1000</text>
    </g>
    <g class="tick" transform="translate(49.88, 0)">
      <line class="tick-line" x1="0" y1="0" x2="0" y2="6" stroke="currentColor" stroke-width="1"/>
      <text class="tick-label" x="0" y="9" text-anchor="end" dominant-baseline="central" transform="rotate(-45, 0, 9)" >2000</text>
    </g>
    <g class="tick" transform="translate(74.82, 0)">
      <line class="tick-line" x1="0" y1="0" x2="0" y2="6" stroke="currentColor" stroke-width="1"/>
      <text class="tick-label" x="0" y="9" text-anchor="end" dominant-baseline="central" transform="rotate(-45, 0, 9)" >3000</text>
    </g>
    <g class="tick" transform="translate(99.76, 0)">
      <line class="tick-line" x1="0" y1="0" x2="0" y2="6" stroke="currentColor" stroke-width="1"/>
      <text class="tick-label" x="0" y="9" text-anchor="end" dominant-baseline="central" transform="rotate(-45, 0, 9)" >4000</text>
    </g>
    <g class="tick" transform="translate(124.69, 0)">
      <line class="tick-line" x1="0" y1="0" x2="0" y2="6" stroke="currentColor" stroke-width="1"/>
      <text class="tick-label" x="0" y="9" text-anchor="end" dominant-baseline="central" transform="rotate(-45, 0, 9)" >5000</text>
    </g>
    <g class="tick" transform="translate(149.63, 0)">
      <line class="tick-line" x1="0" y1="0" x2="0" y2="6" stroke="currentColor" stroke-width="1"/>
      <text class="tick-label" x="0" y="9" text-anchor="end" dominant-baseline="central" transform="rotate(-45, 0, 9)" >6000</text>
    </g>
    <g class="tick" transform="translate(174.57, 0)">
      <line class="tick-line" x1="0" y1="0" x2="0" y2="6" stroke="currentColor" stroke-width="1"/>
      <text class="tick-label" x="0" y="9" text-anchor="end" dominant-baseline="central" transform="rotate(-45, 0, 9)" >7000</text>
    </g>
    <g class="tick" transform="translate(199.51, 0)">
      <line class="tick-line" x1="0" y1="0" x2="0" y2="6" stroke="currentColor" stroke-width="1"/>
      <text class="tick-label" x="0" y="9" text-anchor="end" dominant-baseline="central" transform="rotate(-45, 0, 9)" >8000</text>
    </g>
    <g class="tick" transform="translate(224.45, 0)">
      <line class="tick-line" x1="0" y1="0" x2="0" y2="6" stroke="currentColor" stroke-width="1"/>
      <text class="tick-label" x="0" y="9" text-anchor="end" dominant-baseline="central" transform="rotate(-45, 0, 9)" >9000</text>
    </g>
    <g class="tick" transform="translate(249.39, 0)">
      <line class="tick-line" x1="0" y1="0" x2="0" y2="6" stroke="currentColor" stroke-width="1"/>
      <text class="tick-label" x="0" y="9" text-anchor="end" dominant-baseline="central" transform="rotate(-45, 0, 9)" >10000</text>
    </g>
    <g class="tick" transform="translate(274.33, 0)">
      <line class="tick-line" x1="0" y1="0" x2="0" y2="6" stroke="currentColor" stroke-width="1"/>
      <text class="tick-label" x="0" y="9" text-anchor="end" dominant-baseline="central" transform="rotate(-45, 0, 9)" >11000</text>
    </g>
    <g class="tick" transform="translate(299.27, 0)">
      <line class="tick-line" x1="0" y1="0" x2="0" y2="6" stroke="currentColor" stroke-width="1"/>
      <text class="tick-label" x="0" y="9" text-anchor="end" dominant-baseline="central" transform="rotate(-45, 0, 9)" >12000</text>
    </g>
    <g class="tick" transform="translate(324.20, 0)">
      <line class="tick-line" x1="0" y1="0" x2="0" y2="6" stroke="currentColor" stroke-width="1"/>
      <text class="tick-label" x="0" y="9" text-anchor="end" dominant-baseline="central" transform="rotate(-45, 0, 9)" >13000</text>
    </g>
  </g>

    </g>

    
    <g> <!-- axis orientation=left range=[0,340] ticks=10 -->
  <g class="axis axis-left" transform="translate(0, 0)">
    <line class="axis-line" x1="0" y1="0" x2="0" y2="340" stroke="currentColor" stroke-width="1"/>
    <g class="tick" transform="translate(0, 1.70)">
      <line class="tick-line" x1="-6" y1="0" x2="0" y2="0" stroke="currentColor" stroke-width="1"/>
      <text class="tick-label" x="-9" y="0" text-anchor="end" dominant-baseline="central" >United States</text>
    </g>
    <g class="tick" transform="translate(0, 35.70)">
      <line class="tick-line" x1="-6" y1="0" x2="0" y2="0" stroke="currentColor" stroke-width="1"/>
      <text class="tick-label" x="-9" y="0" text-anchor="end" dominant-baseline="central" >Russia</text>
    </g>
    <g class="tick" transform="translate(0, 69.70)">
      <line class="tick-line" x1="-6" y1="0" x2="0" y2="0" stroke="currentColor" stroke-width="1"/>
      <text class="tick-label" x="-9" y="0" text-anchor="end" dominant-baseline="central" >Germany (FRG)</text>
    </g>
    <g class="tick" transform="translate(0, 103.70)">
      <line class="tick-line" x1="-6" y1="0" x2="0" y2="0" stroke="currentColor" stroke-width="1"/>
      <text class="tick-label" x="-9" y="0" text-anchor="end" dominant-baseline="central" >France</text>
    </g>
    <g class="tick" transform="translate(0, 137.70)">
      <line class="tick-line" x1="-6" y1="0" x2="0" y2="0" stroke="currentColor" stroke-width="1"/>
      <text class="tick-label" x="-9" y="0" text-anchor="end" dominant-baseline="central" >United Kingdom</text>
    </g>
    <g class="tick" transform="translate(0, 171.70)">
      <line class="tick-line" x1="-6" y1="0" x2="0" y2="0" stroke="currentColor" stroke-width="1"/>
      <text class="tick-label" x="-9" y="0" text-anchor="end" dominant-baseline="central" >China</text>
    </g>
    <g class="tick" transform="translate(0, 205.70)">
      <line class="tick-line" x1="-6" y1="0" x2="0" y2="0" stroke="currentColor" stroke-width="1"/>
      <text class="tick-label" x="-9" y="0" text-anchor="end" dominant-baseline="central" >Spain</text>
    </g>
    <g class="tick" transform="translate(0, 239.70)">
      <line class="tick-line" x1="-6" y1="0" x2="0" y2="0" stroke="currentColor" stroke-width="1"/>
      <text class="tick-label" x="-9" y="0" text-anchor="end" dominant-baseline="central" >Netherlands</text>
    </g>
    <g class="tick" transform="translate(0, 273.70)">
      <line class="tick-line" x1="-6" y1="0" x2="0" y2="0" stroke="currentColor" stroke-width="1"/>
      <text class="tick-label" x="-9" y="0" text-anchor="end" dominant-baseline="central" >Italy</text>
    </g>
    <g class="tick" transform="translate(0, 307.70)">
      <line class="tick-line" x1="-6" y1="0" x2="0" y2="0" stroke="currentColor" stroke-width="1"/>
      <text class="tick-label" x="-9" y="0" text-anchor="end" dominant-baseline="central" >Israel</text>
    </g>
  </g>
 </g>

      <rect x="0.0"
            y="1.6999999999999993"
            width="309.09090909090907"
            height="30.6"
            fill="#69b3a2"/>
      <rect x="0.0"
            y="35.7"
            width="153.3234556310238"
            height="30.6"
            fill="#69b3a2"/>
      <rect x="0.0"
            y="69.7"
            width="41.22375929702055"
            height="30.6"
            fill="#69b3a2"/>
      <rect x="0.0"
            y="103.7"
            width="53.91758475508677"
            height="30.6"
            fill="#69b3a2"/>
      <rect x="0.0"
            y="137.7"
            width="30.27564657385538"
            height="30.6"
            fill="#69b3a2"/>
      <rect x="0.0"
            y="171.7"
            width="28.20573004532985"
            height="30.6"
            fill="#69b3a2"/>
      <rect x="0.0"
            y="205.7"
            width="20.300145231563658"
            height="30.6"
            fill="#69b3a2"/>
      <rect x="0.0"
            y="239.7"
            width="29.103525166136105"
            height="30.6"
            fill="#69b3a2"/>
      <rect x="0.0"
            y="273.7"
            width="16.459577214781344"
            height="30.6"
            fill="#69b3a2"/>
      <rect x="0.0"
            y="307.7"
            width="31.497645488286118"
            height="30.6"
            fill="#69b3a2"/>
  </g>
</svg>